<svg width="40" height="40" viewBox="0 0 40 40" fill="none" xmlns="http://www.w3.org/2000/svg">
<path d="M32.2556 21.1445C31.5929 26.6628 27.9786 28.8678 26.4176 30.4685C24.8542 32.0738 25.1342 32.3935 25.2392 34.7478C25.2568 35.0391 25.2145 35.3309 25.1149 35.6052C25.0154 35.8795 24.8607 36.1305 24.6605 36.3428C24.4602 36.5551 24.2186 36.7241 23.9506 36.8394C23.6826 36.9548 23.3937 37.014 23.1019 37.0135H16.8999C16.6083 37.013 16.3198 36.9531 16.0521 36.8374C15.7845 36.7217 15.5431 36.5527 15.3429 36.3407C15.1427 36.1287 14.9878 35.8781 14.8876 35.6043C14.7874 35.3304 14.7441 35.039 14.7602 34.7478C14.7602 32.4378 14.9749 31.9012 13.5842 30.4685C11.8109 28.6952 7.63891 26.1915 7.63891 19.3058C7.62826 17.5955 7.97204 15.9015 8.64858 14.3306C9.32511 12.7597 10.3197 11.346 11.5698 10.1786C12.8198 9.01123 14.2981 8.11545 15.9115 7.54774C17.5249 6.98003 19.2384 6.75271 20.944 6.8801C22.6496 7.0075 24.3104 7.48685 25.8215 8.28794C27.3327 9.08903 28.6615 10.1945 29.7242 11.5346C30.787 12.8748 31.5605 14.4205 31.9962 16.0745C32.4319 17.7284 32.5202 19.4547 32.2556 21.1445Z" stroke="#F8F8F8" stroke-width="1.5" stroke-linecap="round" stroke-linejoin="round"/>
<path d="M16.4069 36.8845V40.4125C16.4069 41.3762 16.9436 42.1672 17.6039 42.1672H22.3942C23.0592 42.1672 23.5936 41.3739 23.5936 40.4125V36.8845M18.1802 12.2912C16.8025 12.2918 15.4814 12.8396 14.5074 13.814C13.5334 14.7884 12.9862 16.1098 12.9862 17.4875M37.1082 19.7765H41.3876M32.8009 5.74854L35.8366 2.71287M35.1342 31.6672L38.1699 34.7005M20.0002 -2.45312V1.00721M4.2269 2.71054L7.24157 5.74854M1.89357 34.7005L4.90823 31.6672M2.89223 19.7765H-1.38477" stroke="#F8F8F8" stroke-width="1.5" stroke-linecap="round" stroke-linejoin="round"/>
</svg>
