<svg width="40" height="40" viewBox="0 0 40 40" fill="none" xmlns="http://www.w3.org/2000/svg">
<g clip-path="url(#clip0_1263_2862)">
<rect width="40" height="40" rx="20" fill="#E7C025"/>
<path fill-rule="evenodd" clip-rule="evenodd" d="M33.7094 30.6903L37.9514 14.5455L31.7522 18.4935C30.5161 19.2817 29.0202 19.5537 27.5857 19.2511C26.1513 18.9485 24.8927 18.0954 24.0802 16.8751L20.0006 10.7459L15.9182 16.8779C15.1053 18.0978 13.8465 18.9502 12.4121 19.2523C10.9777 19.5544 9.482 19.282 8.2462 18.4935L2.0526 14.5455L6.2946 30.6903H33.7094ZM3.5534 12.1823C1.4058 10.8131 -1.3074 12.7927 -0.660597 15.2567L3.5842 31.4015C3.74134 31.9999 4.09224 32.5294 4.58208 32.9073C5.07193 33.2852 5.67314 33.4902 6.2918 33.4903H33.7094C34.3281 33.4902 34.9293 33.2852 35.4191 32.9073C35.909 32.5294 36.2599 31.9999 36.417 31.4015L40.6618 15.2567C41.3058 12.7927 38.5954 10.8159 36.4478 12.1823L30.2486 16.1303C29.6309 16.5247 28.8832 16.6611 28.166 16.5103C27.4488 16.3596 26.8193 15.9336 26.4126 15.3239L22.3302 9.19194C22.0745 8.80846 21.7281 8.49403 21.3217 8.27656C20.9153 8.0591 20.4615 7.94531 20.0006 7.94531C19.5397 7.94531 19.0859 8.0591 18.6795 8.27656C18.2731 8.49403 17.9267 8.80846 17.671 9.19194L13.5886 15.3239C13.1824 15.9341 12.5531 16.3606 11.8359 16.5119C11.1186 16.6632 10.3707 16.5272 9.7526 16.1331L3.5534 12.1823Z" fill="#F8F8F8"/>
<path d="M22.6433 3.04555C22.644 3.74731 22.3659 4.42062 21.8703 4.91737C21.3746 5.41412 20.7018 5.6936 20.0001 5.69434C19.2983 5.69509 18.625 5.41703 18.1282 4.92133C17.6315 4.42563 17.352 3.75291 17.3513 3.05115C17.3505 2.34938 17.6286 1.67607 18.1243 1.17932C18.62 0.682575 19.2927 0.403088 19.9945 0.402345C20.6962 0.401603 21.3695 0.679665 21.8663 1.17536C22.363 1.67106 22.6425 2.34378 22.6433 3.04555ZM43.8001 8.34034C43.8004 9.04211 43.522 9.71528 43.0261 10.2118C42.5301 10.7082 41.8572 10.9874 41.1555 10.9877C40.4537 10.9881 39.7805 10.7097 39.2841 10.2137C38.7876 9.71778 38.5084 9.04491 38.5081 8.34314C38.5081 7.64138 38.7868 6.96836 39.2831 6.47214C39.7793 5.97592 40.4523 5.69715 41.1541 5.69715C41.8558 5.69715 42.5288 5.97592 43.0251 6.47214C43.5213 6.96836 43.8001 7.63858 43.8001 8.34034ZM1.48927 8.34034C1.48945 8.68782 1.42119 9.03193 1.28839 9.35303C1.15558 9.67413 0.960835 9.96593 0.715261 10.2118C0.469687 10.4576 0.178097 10.6527 -0.142861 10.7858C-0.463818 10.9189 -0.807857 10.9876 -1.15533 10.9877C-1.50281 10.9879 -1.84692 10.9197 -2.16802 10.7869C-2.48912 10.6541 -2.78092 10.4593 -3.02675 10.2137C-3.27258 9.96817 -3.46764 9.67658 -3.60078 9.35562C-3.73393 9.03466 -3.80255 8.69062 -3.80273 8.34314C-3.80273 7.64138 -3.52396 6.96836 -3.02774 6.47214C-2.53152 5.97592 -1.8585 5.69715 -1.15673 5.69715C-0.454972 5.69715 0.218049 5.97592 0.714271 6.47214C1.21049 6.96836 1.48927 7.63858 1.48927 8.34034Z" fill="#F8F8F8"/>
<path fill-rule="evenodd" clip-rule="evenodd" d="M6.69922 36.8004C6.69922 36.4291 6.84672 36.073 7.10927 35.8104C7.37182 35.5479 7.72792 35.4004 8.09922 35.4004H32.5628C32.9341 35.4004 33.2902 35.5479 33.5528 35.8104C33.8153 36.073 33.9628 36.4291 33.9628 36.8004C33.9628 37.1717 33.8153 37.5278 33.5528 37.7903C33.2902 38.0529 32.9341 38.2004 32.5628 38.2004H8.09922C7.72792 38.2004 7.37182 38.0529 7.10927 37.7903C6.84672 37.5278 6.69922 37.1717 6.69922 36.8004Z" fill="#F8F8F8"/>
</g>
<defs>
<clipPath id="clip0_1263_2862">
<rect width="40" height="40" rx="20" fill="white"/>
</clipPath>
</defs>
</svg>
